<svg xmlns="http://www.w3.org/2000/svg" viewBox="0 0 400 300" width="400" height="300">
  <defs>
    <linearGradient id="gbg" x1="0" y1="0" x2="0" y2="1"><stop offset="0" stop-color="#ffffff"/><stop offset="1" stop-color="#eef3f5"/></linearGradient>
    <linearGradient id="gsteel" x1="0" y1="0" x2="1" y2="0"><stop offset="0" stop-color="#e9eef1"/><stop offset=".5" stop-color="#ffffff"/><stop offset="1" stop-color="#d5dde2"/></linearGradient>
  </defs>
  <rect width="400" height="300" fill="url(#gbg)"/>
  <g stroke="#12315f" stroke-width="3" stroke-linejoin="round" stroke-linecap="round" fill="url(#gsteel)">
    
    <rect x="70" y="150" width="18" height="90" rx="3" fill="#c9d3d9"/><circle cx="79" cy="165" r="3.96" fill="#8fa0aa" stroke="none"/><circle cx="79" cy="195" r="3.96" fill="#8fa0aa" stroke="none"/><circle cx="79" cy="225" r="3.96" fill="#8fa0aa" stroke="none"/>
    <rect x="312" y="150" width="18" height="90" rx="3" fill="#c9d3d9"/><circle cx="321" cy="165" r="3.96" fill="#8fa0aa" stroke="none"/><circle cx="321" cy="195" r="3.96" fill="#8fa0aa" stroke="none"/><circle cx="321" cy="225" r="3.96" fill="#8fa0aa" stroke="none"/>
    <path d="M88 165h60l30 22h44l30-22h60v60h-60l-30-22h-44l-30 22H88z"/>
    <rect x="170" y="130" width="60" height="50" rx="6"/>
    <rect x="186" y="92" width="28" height="40" rx="4"/>
    <rect x="196" y="40" width="8" height="52" fill="#8fa0aa"/>
    
  <circle cx="200" cy="52" r="34" fill="none" stroke="#12315f" stroke-width="4"/>
  <circle cx="200" cy="52" r="7.48" fill="#12315f"/>
  <path d="M166 52h68M200 18v68M176.2 28.200000000000003L223.8 75.8M223.8 28.200000000000003L176.2 75.8" stroke="#12315f" stroke-width="3"/>
    <text x="200" y="200" text-anchor="middle" font-family="Inter, Arial" font-size="10" font-weight="700" fill="#1b4b9c" stroke="none">JTECK</text>
  </g>
</svg>
