<svg xmlns="http://www.w3.org/2000/svg" viewBox="0 0 800 600" width="800" height="600">
  <defs>
    <linearGradient id="emg" x1="0" y1="0" x2="1" y2="1"><stop offset="0" stop-color="#0b2a3d"/><stop offset="1" stop-color="#0f6e73"/></linearGradient>
    <linearGradient id="emsteel" x1="0" y1="0" x2="1" y2="0"><stop offset="0" stop-color="#e9eef1"/><stop offset=".5" stop-color="#ffffff"/><stop offset="1" stop-color="#d5dde2"/></linearGradient>
    
  <pattern id="emp" width="80" height="70" patternUnits="userSpaceOnUse">
    <path d="M40 0L80 70H0z" fill="none" stroke="#ffffff" stroke-opacity=".14"/>
    <path d="M0 0L40 70 80 0" fill="none" stroke="#ffffff" stroke-opacity=".07"/>
  </pattern>
    <radialGradient id="emglow" cx=".72" cy=".5" r=".5"><stop offset="0" stop-color="#ffffff" stop-opacity=".18"/><stop offset="1" stop-color="#ffffff" stop-opacity="0"/></radialGradient>
  </defs>
  <rect width="800" height="600" fill="url(#emg)"/>
  <rect width="800" height="600" fill="url(#emp)"/>
  <rect width="800" height="600" fill="url(#emglow)"/>
  
  <g stroke="#0b2a3d" stroke-width="3" stroke-linejoin="round" stroke-linecap="round" fill="url(#emsteel)">
    
  <g transform="translate(60 300) scale(1.1)">
    <rect x="0" y="150" width="360" height="24" rx="4" fill="#c9d3d9"/>
    <rect x="20" y="174" width="16" height="70" fill="#8fa0aa"/><rect x="324" y="174" width="16" height="70" fill="#8fa0aa"/>
    <g transform="translate(-40 -80) scale(.8)">
    <g transform="translate(0 0) scale(1)">
      <rect x="140" y="262" width="120" height="16" rx="3" fill="#c9d3d9"/><circle cx="155" cy="270" r="3.52" fill="#8fa0aa" stroke="none"/><circle cx="185" cy="270" r="3.52" fill="#8fa0aa" stroke="none"/><circle cx="215" cy="270" r="3.52" fill="#8fa0aa" stroke="none"/><circle cx="245" cy="270" r="3.52" fill="#8fa0aa" stroke="none"/><rect x="172" y="222" width="56" height="40"/>
      <rect x="150" y="158" width="100" height="66" rx="14"/>
      
      <rect x="86" y="172" width="64" height="38"/>
      <rect x="70" y="156" width="16" height="70" rx="3" fill="#c9d3d9"/><circle cx="78" cy="167.66666666666666" r="3.52" fill="#8fa0aa" stroke="none"/><circle cx="78" cy="191" r="3.52" fill="#8fa0aa" stroke="none"/><circle cx="78" cy="214.33333333333334" r="3.52" fill="#8fa0aa" stroke="none"/>
      <rect x="176" y="86" width="48" height="74" rx="6" fill="#ffffff"/>
      <polyline points="184,96 216,101.6 184,107.2 216,112.8 184,118.4 216,124 184,129.6 216,135.2 184,140.8 216,146.4 184,152" fill="none" stroke="#f28c28" stroke-width="3" stroke-linejoin="round"/>
      <rect x="168" y="66" width="64" height="24" rx="6"/>
      <circle cx="200" cy="78" r="5" fill="#0b2a3d" stroke="none"/>
      <path d="M226 76L292 52" stroke-width="5"/><circle cx="292" cy="52" r="6" fill="#f28c28" stroke="#f28c28"/>
      <path d="M160 190h20" stroke="#15a3ad" stroke-width="2"/>
      <text x="200" y="196" text-anchor="middle" font-family="Inter, Arial" font-size="10" font-weight="700" fill="#0f6e73" stroke="none">JTEC</text>
    </g></g>
    <circle cx="270" cy="80" r="42" fill="#ffffff"/>
    <circle cx="270" cy="80" r="32" fill="#12384f" stroke="none"/>
    <path d="M270 80L286 62" stroke="#f28c28" stroke-width="3"/>
    <circle cx="270" cy="80" r="4" fill="#f28c28" stroke="none"/>
    <path d="M250 120v30M290 120v30" stroke="#8fa0aa" stroke-width="6"/>
    <path d="M160 150v-20h60" fill="none" stroke="#8fa0aa" stroke-width="6"/>
    <rect x="200" y="106" width="30" height="30" rx="4" fill="#15a3ad"/>
  </g><g transform="translate(470 120) scale(.9)">
  <g transform="translate(0 0) scale(0.7)">
    <rect x="0" y="120" width="380" height="90" rx="8" fill="#e9eef1"/>
    <rect x="0" y="40" width="380" height="80" rx="8" fill="#ffffff"/>
    <rect x="20" y="52" width="110" height="56" rx="6" fill="#12384f"/>
    <rect x="30" y="60" width="90" height="40" rx="3" fill="#9dd6dc"/>
    <polyline points="38,90 55,84 66,70 82,72 92,86 112,80" fill="none" stroke="#0b2a3d" stroke-width="2"/>
    <circle cx="180" cy="80" r="22" fill="#8fa0aa"/>
    <circle cx="180" cy="80" r="10" fill="#ffffff"/>
    <rect x="200" y="72" width="120" height="16" rx="3" fill="#c9d3d9"/>
    <path d="M210 66l0 28M230 66v28M250 66v28" stroke="#f28c28" stroke-width="3"/>
    <path d="M320 64l30 16-30 16z" fill="#8fa0aa"/>
    <rect x="40" y="140" width="300" height="10" rx="3" fill="#8fa0aa"/>
    <rect x="30" y="210" width="20" height="30" fill="#8fa0aa"/><rect x="330" y="210" width="20" height="30" fill="#8fa0aa"/>
  </g></g>
  </g>
</svg>
