<svg xmlns="http://www.w3.org/2000/svg" viewBox="0 0 800 420" width="800" height="420">
  <defs>
    <linearGradient id="srg" x1="0" y1="0" x2="1" y2="1"><stop offset="0" stop-color="#1b4b9c"/><stop offset="1" stop-color="#12315f"/></linearGradient>
    <linearGradient id="srsteel" x1="0" y1="0" x2="1" y2="0"><stop offset="0" stop-color="#e9eef1"/><stop offset=".5" stop-color="#ffffff"/><stop offset="1" stop-color="#d5dde2"/></linearGradient>
    
  <pattern id="srp" width="80" height="70" patternUnits="userSpaceOnUse">
    <path d="M40 0L80 70H0z" fill="none" stroke="#ffffff" stroke-opacity=".14"/>
    <path d="M0 0L40 70 80 0" fill="none" stroke="#ffffff" stroke-opacity=".07"/>
  </pattern>
    <radialGradient id="srglow" cx=".72" cy=".5" r=".5"><stop offset="0" stop-color="#ffffff" stop-opacity=".18"/><stop offset="1" stop-color="#ffffff" stop-opacity="0"/></radialGradient>
  </defs>
  <rect width="800" height="420" fill="url(#srg)"/>
  <rect width="800" height="420" fill="url(#srp)"/>
  <rect width="800" height="420" fill="url(#srglow)"/>
  <text x="48" y="380" font-family="Inter, Arial" font-size="20" font-weight="700" fill="#ffffff" fill-opacity=".85" letter-spacing="1">TREINAMENTO E CONSULTORIA</text>
  <g stroke="#12315f" stroke-width="3" stroke-linejoin="round" stroke-linecap="round" fill="url(#srsteel)">
    
  <g transform="translate(400 90) scale(0.9)">
    <rect x="0" y="0" width="340" height="200" rx="10" fill="#ffffff"/>
    <rect x="12" y="12" width="316" height="176" rx="6" fill="#f4f7f8" stroke="none"/>
    <g transform="translate(-40 -60) scale(.62)">
    <g transform="translate(0 0) scale(1)">
      <rect x="140" y="262" width="120" height="16" rx="3" fill="#c9d3d9"/><circle cx="155" cy="270" r="3.52" fill="#8fa0aa" stroke="none"/><circle cx="185" cy="270" r="3.52" fill="#8fa0aa" stroke="none"/><circle cx="215" cy="270" r="3.52" fill="#8fa0aa" stroke="none"/><circle cx="245" cy="270" r="3.52" fill="#8fa0aa" stroke="none"/><rect x="172" y="222" width="56" height="40"/>
      <rect x="150" y="158" width="100" height="66" rx="14"/>
      
      <rect x="86" y="172" width="64" height="38"/>
      <rect x="70" y="156" width="16" height="70" rx="3" fill="#c9d3d9"/><circle cx="78" cy="167.66666666666666" r="3.52" fill="#8fa0aa" stroke="none"/><circle cx="78" cy="191" r="3.52" fill="#8fa0aa" stroke="none"/><circle cx="78" cy="214.33333333333334" r="3.52" fill="#8fa0aa" stroke="none"/>
      <rect x="176" y="86" width="48" height="74" rx="6" fill="#ffffff"/>
      <polyline points="184,96 216,101.6 184,107.2 216,112.8 184,118.4 216,124 184,129.6 216,135.2 184,140.8 216,146.4 184,152" fill="none" stroke="#f28c28" stroke-width="3" stroke-linejoin="round"/>
      <rect x="168" y="66" width="64" height="24" rx="6"/>
      <circle cx="200" cy="78" r="5" fill="#12315f" stroke="none"/>
      <path d="M226 76L292 52" stroke-width="5"/><circle cx="292" cy="52" r="6" fill="#f28c28" stroke="#f28c28"/>
      <path d="M160 190h20" stroke="#3b74d1" stroke-width="2"/>
      <text x="200" y="196" text-anchor="middle" font-family="Inter, Arial" font-size="10" font-weight="700" fill="#1b4b9c" stroke="none">JTECK</text>
    </g></g>
    <path d="M190 50h110M190 74h90M190 98h100M190 122h70" stroke="#1b4b9c" stroke-width="6" stroke-linecap="round"/>
    <path d="M190 156h60" stroke="#f28c28" stroke-width="6" stroke-linecap="round"/>
    <path d="M170 200v40M40 240h260" stroke="#8fa0aa" stroke-width="6"/>
  </g>
  </g>
</svg>
